<svg width="212" height="38" viewBox="0 0 212 38" fill="none" xmlns="http://www.w3.org/2000/svg">
<path d="M63.2526 10.1316H60.3076V12.4853C60.3076 13.6954 59.6574 14.3455 58.416 14.3455H57.2998V17.2279H59.8728V24.759C59.8728 28.1975 61.9485 30.2144 64.7996 30.2144C65.6377 30.2144 66.2564 30.0578 66.6598 29.905V26.8072C66.3504 26.9639 65.9784 27.0226 65.575 27.0226C64.1808 27.0226 63.2526 26.2159 63.2526 24.4809V17.2279H66.6598V14.1615H63.2526V10.1316ZM80.2847 15.6653C80.2533 16.1548 79.6228 16.3311 79.3448 15.9238C78.632 14.8781 77.3161 13.7894 74.9272 13.7894C71.0539 13.7894 67.7055 17.2279 67.7055 22.0019C67.7055 26.7759 71.0539 30.2144 74.9272 30.2144C77.2809 30.2144 78.6124 29.0591 79.3369 27.9899C79.6111 27.5866 80.2455 27.7706 80.2768 28.2563L80.3787 29.8423H83.0222V14.1615H80.3787L80.2808 15.6653H80.2847ZM75.3031 27.0539C73.0395 27.0539 71.0892 25.0096 71.0892 22.0019C71.0892 18.9942 73.0434 16.9499 75.3031 16.9499C77.5628 16.9499 79.5171 18.9942 79.5171 22.0019C79.5171 25.0096 77.5628 27.0539 75.3031 27.0539ZM93.0675 16.9499C95.2998 16.9499 96.5374 18.6535 96.9094 19.9263H100.317C99.6978 16.8598 96.9682 13.7894 93.0636 13.7894C88.8183 13.7894 85.2858 17.4159 85.2858 22.0019C85.2858 26.5879 88.8183 30.2144 93.0636 30.2144C96.9682 30.2144 99.6978 27.1166 100.317 24.0775H96.9094C96.5374 25.3464 95.2959 27.0539 93.0675 27.0539C90.6511 27.0539 88.6656 24.9783 88.6656 22.0019C88.6656 19.0255 90.6472 16.9499 93.0675 16.9499ZM102.592 29.8423H106.003V8.146H102.592V29.8423ZM143.294 13.7855C141.207 13.7855 139.918 14.9369 139.163 16.0295C138.826 16.5152 138.066 16.3154 138.007 15.728L137.843 14.1575H135.301V35.4192H138.708V29.1766C138.708 28.644 139.366 28.3776 139.726 28.7693C140.412 29.5173 141.524 30.2144 143.298 30.2144C147.171 30.2144 150.52 26.7759 150.52 22.0019C150.52 17.2279 147.171 13.7894 143.298 13.7894L143.294 13.7855ZM142.922 27.0539C140.659 27.0539 138.708 25.0096 138.708 22.0019C138.708 18.9942 140.662 16.9499 142.922 16.9499C145.182 16.9499 147.136 18.9942 147.136 22.0019C147.136 25.0096 145.186 27.0539 142.922 27.0539ZM159.77 13.7855C155.525 13.7855 151.992 17.412 151.992 21.998C151.992 26.584 155.525 30.2105 159.77 30.2105C164.015 30.2105 167.548 26.5527 167.548 21.998C167.548 17.4433 164.015 13.7855 159.77 13.7855ZM159.77 27.0539C157.354 27.0539 155.368 24.9783 155.368 22.0019C155.368 19.0255 157.35 16.9499 159.77 16.9499C162.19 16.9499 164.172 19.0255 164.172 22.0019C164.172 24.9783 162.19 27.0539 159.77 27.0539ZM177.523 17.2279V14.1615H174.116V10.1316H171.171V12.4853C171.171 13.6954 170.52 14.3455 169.279 14.3455H168.163V17.2279H170.736V24.759C170.736 28.1975 172.811 30.2144 175.663 30.2144C176.501 30.2144 177.119 30.0578 177.523 29.905V26.8072C177.213 26.9639 176.841 27.0226 176.438 27.0226C175.044 27.0226 174.112 26.2159 174.112 24.4809V17.2279H177.519H177.523ZM116.973 14.1575H113.037L107.965 20.5764C107.28 21.3792 107.307 22.1233 107.965 22.9536L113.409 29.8385H117.654L110.93 21.5946L116.973 14.1575ZM44.6658 13.9108C44.6658 12.2699 45.9347 11.0284 48.261 11.0284C50.4502 11.0284 51.8483 12.3874 52.0755 14.3455H55.6706C55.3652 10.6368 52.5807 7.77393 48.2571 7.77393C43.9335 7.77393 41.0667 10.4096 41.0667 13.8481C41.0667 21.5633 52.4084 19.3036 52.4084 24.105C52.4084 25.6872 51.1395 26.956 48.5351 26.956C45.9308 26.956 44.3838 25.4052 44.1645 23.1768H40.5693C40.7534 27.238 43.6985 30.2105 48.5038 30.2105C53.3091 30.2105 56.0035 27.5435 56.0035 24.011C56.0035 16.2019 44.6619 18.6182 44.6619 13.9069L44.6658 13.9108ZM122.017 13.9108C122.017 12.2699 123.286 11.0284 125.612 11.0284C127.801 11.0284 129.199 12.3874 129.427 14.3455H133.026C132.72 10.6368 129.936 7.77393 125.612 7.77393C121.288 7.77393 118.422 10.4096 118.422 13.8481C118.422 21.5633 129.763 19.3036 129.763 24.105C129.763 25.6872 128.494 26.956 125.89 26.956C123.286 26.956 121.739 25.4052 121.52 23.1768H117.924C118.108 27.238 121.053 30.2105 125.859 30.2105C130.664 30.2105 133.359 27.5435 133.359 24.011C133.359 16.2019 122.017 18.6182 122.017 13.9069V13.9108Z" fill="#EBE7E4"/>
<path d="M200.601 29.8499L192.416 8.14185H189.686L181.501 29.8499H184.415L190.99 11.9876L197.566 29.8499H200.605H200.601ZM208.277 10.4995H211.136V8.14185H202.563V10.4995H205.422V27.4845H202.563V29.8421H211.136V27.4845H208.277V10.4995ZM190.892 22.7536C189.984 22.7536 189.247 23.4899 189.247 24.3985C189.247 25.3071 189.984 26.0433 190.892 26.0433C191.801 26.0433 192.537 25.3071 192.537 24.3985C192.537 23.4899 191.801 22.7536 190.892 22.7536Z" fill="#FF6900"/>
<path d="M30.2183 13.57C31.7182 13.57 32.9323 12.356 32.9323 10.856C32.9323 9.35606 31.7182 8.14203 30.2183 8.14203C28.7183 8.14203 27.5043 9.35606 27.5043 10.856C27.5043 12.356 28.7183 13.57 30.2183 13.57ZM30.2183 24.43C28.7183 24.43 27.5043 25.644 27.5043 27.144C27.5043 28.6439 28.7183 29.858 30.2183 29.858C31.7182 29.858 32.9323 28.6439 32.9323 27.144C32.9323 25.644 31.7182 24.43 30.2183 24.43ZM16.4642 32.572C14.9642 32.572 13.7502 33.786 13.7502 35.286C13.7502 36.7859 14.9642 38 16.4642 38C17.9641 38 19.1782 36.7859 19.1782 35.286C19.1782 33.786 17.9641 32.572 16.4642 32.572ZM29.2666 21.5397C30.3044 21.9274 31.5263 21.6572 32.2978 20.7486C33.2182 19.656 33.1163 17.9877 32.0707 17.0125C31.2992 16.2958 30.2261 16.1117 29.2979 16.4485C28.6008 16.6992 27.8332 16.6404 27.1949 16.2645C26.5526 15.8846 26.1375 15.2266 26.02 14.4904C25.9025 13.7815 25.5069 13.1197 24.8647 12.6849C24.1245 12.1837 23.2277 12.0975 22.4444 12.3755C21.7395 12.6223 20.964 12.5792 20.3178 12.1993C19.6716 11.8194 19.2604 11.1576 19.139 10.4174C19.0176 9.69287 18.6064 9.01929 17.9406 8.58458C16.7579 7.81698 15.1365 8.10675 14.2945 9.23465C13.3585 10.484 13.6679 12.2463 14.9447 13.1118C15.6848 13.6131 16.5817 13.6993 17.3649 13.4212C18.0699 13.1745 18.8453 13.2175 19.4915 13.5974C20.1338 13.9773 20.5489 14.6353 20.6703 15.3755C20.7878 16.0843 21.1833 16.7462 21.8256 17.1809C22.5658 17.6822 23.4626 17.7683 24.2459 17.4903C24.2968 17.4707 25.0722 17.1143 25.4678 17.1143C26.5095 17.1143 27.3554 17.9602 27.3554 19.002C27.3554 20.0437 26.5095 20.8896 25.4678 20.8896C25.0722 20.8896 24.3007 20.5293 24.2498 20.5137C23.4783 20.2395 22.5971 20.3178 21.8609 20.7995C21.1951 21.2342 20.7917 21.9118 20.6742 22.6402C20.5528 23.3726 20.1416 24.0305 19.4954 24.4143C18.8531 24.7942 18.0777 24.8412 17.3688 24.5905C16.5856 24.3164 15.6887 24.4025 14.9486 24.8999C13.6718 25.7654 13.3625 27.5278 14.2985 28.7771C15.1444 29.905 16.7618 30.1948 17.9445 29.4272C18.6142 28.9925 19.0254 28.3188 19.1429 27.5943C19.2643 26.8541 19.6756 26.1962 20.3217 25.8124C20.964 25.4326 21.9235 25.5031 22.4405 25.6284C23.2355 25.8203 24.0932 25.8242 24.8294 25.3424C25.4952 24.9077 25.9025 24.2302 26.02 23.5018C26.1375 22.7694 26.5526 22.1154 27.1949 21.7355C27.8215 21.3635 28.5852 21.2812 29.2666 21.5397ZM15.5164 21.5397C16.5543 21.9274 17.7761 21.6572 18.5477 20.7486C19.468 19.656 19.3662 17.9877 18.3205 17.0125C17.549 16.2958 16.4759 16.1117 15.5478 16.4485C14.8507 16.6992 14.0831 16.6404 13.4447 16.2645C12.8024 15.8846 12.3873 15.2266 12.2698 14.4904C12.2659 14.4551 11.7959 12.2228 9.59105 12.2228C8.0911 12.2228 6.87705 13.4369 6.87705 14.9368C6.87705 16.4368 8.0911 17.6508 9.59105 17.6508C10.0375 17.6508 10.4566 17.5412 10.8286 17.3493C11.1027 17.2435 11.4748 17.1143 11.7137 17.1143C12.7554 17.1143 13.6014 17.9602 13.6014 19.002C13.6014 20.0437 12.7554 20.8896 11.7137 20.8896C11.4513 20.8896 11.0283 20.733 10.7542 20.6233C10.6641 20.5881 10.0571 20.357 9.58713 20.357C8.08719 20.357 6.87313 21.5711 6.87313 23.071C6.87313 24.571 8.08719 25.785 9.58713 25.785C10.9265 25.785 12.0387 24.8137 12.2581 23.5331C12.2581 23.5214 12.2659 23.5096 12.2698 23.4979C12.3873 22.7655 12.8024 22.1115 13.4447 21.7316C14.0713 21.3596 14.835 21.2773 15.5164 21.5358V21.5397ZM23.3412 28.499C21.8413 28.499 20.6272 29.7131 20.6272 31.213C20.6272 32.7129 21.8413 33.927 23.3412 33.927C24.8412 33.927 26.0552 32.7129 26.0552 31.213C26.0552 29.7131 24.8412 28.499 23.3412 28.499ZM16.4642 5.428C17.9641 5.428 19.1782 4.21397 19.1782 2.71403C19.1782 1.21408 17.9641 0 16.4642 0C14.9642 0 13.7502 1.21408 13.7502 2.71403C13.7502 4.21397 14.9642 5.428 16.4642 5.428ZM9.59105 28.499C8.0911 28.499 6.87705 29.7131 6.87705 31.213C6.87705 32.7129 8.0911 33.927 9.59105 33.927C11.091 33.927 12.3051 32.7129 12.3051 31.213C12.3051 29.7131 11.091 28.499 9.59105 28.499ZM23.3412 9.50098C24.8412 9.50098 26.0552 8.2869 26.0552 6.78695C26.0552 5.28701 24.8412 4.07298 23.3412 4.07298C21.8413 4.07298 20.6272 5.28701 20.6272 6.78695C20.6272 8.2869 21.8413 9.50098 23.3412 9.50098ZM9.59105 9.50098C11.091 9.50098 12.3051 8.2869 12.3051 6.78695C12.3051 5.28701 11.091 4.07298 9.59105 4.07298C8.0911 4.07298 6.87705 5.28701 6.87705 6.78695C6.87705 8.2869 8.0911 9.50098 9.59105 9.50098ZM2.714 8.14203C1.21406 8.14203 0 9.35606 0 10.856C0 12.356 1.21406 13.57 2.714 13.57C4.21395 13.57 5.42801 12.356 5.42801 10.856C5.42801 9.35606 4.21395 8.14203 2.714 8.14203ZM2.714 24.43C1.21406 24.43 0 25.644 0 27.144C0 28.6439 1.21406 29.858 2.714 29.858C4.21395 29.858 5.42801 28.6439 5.42801 27.144C5.42801 25.644 4.21395 24.43 2.714 24.43ZM2.714 16.284C1.21406 16.284 0 17.4981 0 18.998C0 20.498 1.21406 21.7121 2.714 21.7121C4.21395 21.7121 5.42801 20.498 5.42801 18.998C5.42801 17.4981 4.21395 16.284 2.714 16.284Z" fill="#FF6900"/>
</svg>
